<svg width="17" height="29" viewBox="0 0 17 29" fill="none" xmlns="http://www.w3.org/2000/svg">
<g opacity="0.6">
<path d="M13.8711 12.6363C14.8596 11.3011 15.4544 9.59123 15.4544 7.7275C15.4547 3.46023 12.3411 2.13682e-08 8.5 2.13682e-08C4.65917 -0.000314003 1.54531 3.46054 1.54531 7.72719C1.54563 9.59092 2.14039 11.3011 3.12862 12.6363C1.31293 13.2637 0 14.9701 0 17V20.0903C0 22.6505 2.07633 24.7269 4.63625 24.7269H5.72466L5.62951 25.7946C5.6025 26.0219 5.69168 26.2574 5.88512 26.4088L8.061 28.1102C8.3006 28.3052 8.65136 28.3165 8.90509 28.1183L11.0869 26.4088C11.2612 26.2725 11.3652 26.0536 11.3447 25.8168L11.2477 24.7272H12.3638C14.924 24.7272 17 22.6509 17 20.0909V16.9997C17 14.9698 15.6871 13.2641 13.8711 12.6363ZM3.09094 7.72719C3.09094 4.31312 5.51269 1.54531 8.5 1.54531C11.4876 1.54531 13.9091 4.31343 13.9091 7.72719C13.9091 11.1409 11.4873 13.9091 8.5 13.9091C5.51269 13.9087 3.09094 11.1413 3.09094 7.72719ZM5.86251 23.1816H5.33903C3.24387 23.1816 1.54563 21.6249 1.54563 19.7047L1.54594 17.3862C1.54594 15.7436 2.7923 14.376 4.46291 14.0121C5.09787 14.5158 5.81101 14.9061 6.57849 15.1529L5.86251 23.1816ZM8.48775 26.6788L7.05486 25.5685L7.91278 15.4271C8.29369 15.4629 8.67837 15.4638 9.05928 15.4296L9.91688 25.5688L8.48775 26.6788ZM11.6613 23.1819H11.1099L10.3951 15.1617C11.173 14.9155 11.8952 14.522 12.5374 14.0121C14.208 14.3757 15.4544 15.7436 15.4544 17.3862L15.4547 19.7041C15.4547 21.6246 13.7558 23.1819 11.6613 23.1819Z" fill="white"/>
</g>
</svg>
