<svg width="28" height="26" viewBox="0 0 28 26" fill="none" xmlns="http://www.w3.org/2000/svg">
<g opacity="0.7">
<path d="M23.8931 18.6272H23.893C23.2473 18.6272 22.6161 18.8188 22.0795 19.1779C21.5428 19.5369 21.1248 20.0472 20.8784 20.644C20.632 21.2409 20.5683 21.8974 20.6954 22.5305C20.8225 23.1635 21.1347 23.7446 21.5923 24.2001C22.0499 24.6556 22.6325 24.965 23.2662 25.0891C23.8998 25.2133 24.556 25.1465 25.1517 24.8973C25.7474 24.6481 26.2557 24.2277 26.6122 23.6893C26.9687 23.151 27.1574 22.5189 27.1544 21.8733L27.1544 21.8731C27.1495 21.0111 26.8039 20.186 26.1929 19.5778C25.5819 18.9697 24.7552 18.628 23.8931 18.6272ZM23.8928 24.2516L23.743 24.2518V24.2615C23.3255 24.2351 22.9214 24.0989 22.572 23.8655C22.181 23.6042 21.8763 23.2329 21.6963 22.7984C21.5164 22.364 21.4693 21.8859 21.561 21.4247C21.6528 20.9635 21.8792 20.5398 22.2117 20.2073C22.5443 19.8748 22.9679 19.6483 23.4291 19.5566C23.8904 19.4649 24.3684 19.5119 24.8029 19.6919C25.2373 19.8719 25.6087 20.1766 25.8699 20.5676C26.1311 20.9585 26.2705 21.418 26.2706 21.8881C26.2662 22.5159 26.0138 23.1165 25.5686 23.5592C25.1232 24.002 24.5209 24.2509 23.8928 24.2516Z" fill="white" stroke="white" stroke-width="0.3"/>
<path d="M20.9298 16.9965L20.9295 16.995C20.7673 16.2231 20.0945 15.6617 19.01 15.2903L19.0099 15.2903C17.2117 14.6751 15.3779 14.6751 13.4746 14.6751H13.4624H13.4011H13.2511V14.8251V15.4088V15.5588H13.4011H13.4624C15.338 15.5588 17.0663 15.5602 18.7255 16.1344L18.726 16.1345C19.5697 16.4234 19.9817 16.7899 20.0637 17.1902L20.0639 17.1912C20.1184 17.4481 20.0389 17.7159 19.8734 17.9881C19.7081 18.2599 19.4676 18.5184 19.2306 18.7482L19.2303 18.7484C17.4279 20.5035 15.4084 22.0197 13.2214 23.2603L16.0969 17.7254L16.2215 17.4857L15.9521 17.5067L15.4297 17.5476C15.4297 17.5476 15.4297 17.5476 15.4297 17.5476C13.5661 17.6925 11.6914 17.5823 9.85765 17.2202C9.57993 17.1652 9.3115 17.1003 9.07782 17.0036C8.84677 16.908 8.65896 16.785 8.53037 16.6189C8.41593 16.4361 8.34529 16.2292 8.324 16.0145C8.30253 15.798 8.33183 15.5794 8.40955 15.3762C8.60805 14.8852 8.88242 14.4284 9.22262 14.0225L9.22275 14.0226L9.22717 14.0168L13.1383 8.8593L13.1688 8.81911V8.76867V8.65484C13.1688 8.57398 13.1591 8.48622 13.1519 8.42088C13.1492 8.39572 13.1468 8.37389 13.1454 8.35706C13.1433 7.86155 12.9916 7.37819 12.7103 6.9702L12.7098 6.96952C12.5054 6.67648 12.2335 6.43684 11.9171 6.27076C11.603 6.10587 11.2542 6.01827 10.8995 6.01519C10.5081 5.97411 10.1125 6.02657 9.74532 6.1683C9.37652 6.31064 9.04702 6.53891 8.78416 6.83414C8.04012 7.61674 7.37607 8.47112 6.80163 9.38448C6.79599 8.09819 6.95333 6.96585 7.54805 6.00783L7.54838 6.0073C7.88726 5.45629 8.36273 5.00217 8.92871 4.68894C9.49469 4.37571 10.132 4.21399 10.7788 4.21946V4.21951L10.7828 4.21944C12.3403 4.19168 13.207 5.16278 14.3594 6.4799L14.3597 6.48017C14.4051 6.53182 14.4511 6.58532 14.4979 6.63985C14.5995 6.7582 14.7053 6.8814 14.8189 7.00101L14.919 7.10652L15.0275 7.00965L15.4624 6.62145L15.5747 6.52125L15.4741 6.40931C15.417 6.34573 15.359 6.27813 15.2999 6.20921C15.2098 6.10427 15.1171 5.99629 15.0211 5.89482L15.0123 5.88477C13.8793 4.58987 12.7482 3.29721 10.7674 3.3357C9.97254 3.33082 9.18982 3.53105 8.4949 3.91706C7.79957 4.3033 7.21569 4.86246 6.79976 5.54044C5.82283 7.10694 5.8556 8.95795 5.97787 10.9843L5.97789 10.9846L6.04502 12.0645L6.07952 12.6195L6.32882 12.1224L6.81333 11.1563L6.81337 11.1562C7.49384 9.79718 8.37045 8.54557 9.41508 7.44157L9.41516 7.44165L9.41892 7.43737C9.5909 7.24121 9.8082 7.09005 10.0519 6.99703C10.2956 6.90401 10.5584 6.87194 10.8173 6.90361L10.8277 6.90487L10.838 6.9047C11.0584 6.90106 11.2763 6.95082 11.4732 7.04974C11.6699 7.14851 11.8397 7.29334 11.9682 7.4719C12.1596 7.74619 12.2584 8.07447 12.2501 8.40885L12.25 8.40885V8.41258V8.41702C12.25 8.46203 12.25 8.51739 12.2582 8.5787L8.52915 13.4853C8.12861 13.9653 7.80773 14.5065 7.57875 15.0883L7.57864 15.0883L7.57669 15.0938C7.4691 15.4024 7.42347 15.7289 7.44221 16.0548L4.42905 20.0261L4.42879 20.0265C3.50997 21.2447 2.58891 22.4608 1.71865 23.6097C1.59666 23.7708 1.47567 23.9305 1.35583 24.0888C1.35573 24.0889 1.35563 24.089 1.35552 24.0892L0.964889 24.5993L0.763271 24.8626L1.09414 24.8402L1.73919 24.7964L1.73971 24.7963C3.57777 24.6652 5.55588 23.6996 7.18948 22.6143C8.82363 21.5287 10.1387 20.3058 10.6487 19.6324L10.739 19.5131L10.6199 19.4224L10.1558 19.0693L10.0363 18.9783L9.94554 19.0979C9.48057 19.7103 8.35025 20.7512 6.94127 21.7132C5.65217 22.5933 4.14709 23.3953 2.72672 23.7433L5.1409 20.5606L5.14099 20.5605L7.7788 17.0758C7.79452 17.0995 7.81071 17.1228 7.82737 17.1459L7.82732 17.1459L7.82982 17.1492C8.28722 17.7463 9.01933 17.9521 9.69187 18.0808C11.3473 18.4079 13.0353 18.5382 14.7208 18.4693L11.3563 24.9277L11.1404 25.3421L11.5572 25.1307L12.3686 24.7192C12.3686 24.7192 12.3686 24.7192 12.3686 24.7192C15.1194 23.3254 17.6409 21.5191 19.8456 19.363L19.8457 19.3629C20.1391 19.0754 20.4564 18.7293 20.6771 18.3357C20.8989 17.9403 21.0278 17.4884 20.9298 16.9965Z" fill="white" stroke="white" stroke-width="0.3"/>
<path d="M20.414 9.46341L20.4091 9.4622C19.6905 9.28403 18.4905 8.98648 18.4905 7.18678V7.04491V6.89491L20.414 9.46341ZM20.414 9.46341C21.5085 9.73194 22.7898 9.3058 23.8406 8.32802L20.414 9.46341ZM18.4905 6.74491H18.3405V6.89491V7.18678C18.3405 8.1269 18.6571 8.69675 19.0877 9.05064C19.5034 9.39227 20.0096 9.51773 20.3643 9.60563L20.3779 9.609L20.3782 9.60909C21.5355 9.89301 22.8666 9.43923 23.9428 8.43783L23.9428 8.43786L23.9455 8.43524C24.3368 8.05239 24.6895 7.63271 24.9989 7.18234C24.8789 7.85858 24.6719 8.51743 24.3822 9.14226C23.7785 10.386 22.7502 11.3025 21.6412 11.607C20.4141 11.9425 19.0448 11.4592 18.4515 10.505L18.4513 10.5046L18.2411 10.169L18.1326 9.99556L17.9998 10.1512L14.8447 13.8522L14.7475 13.9662L14.8613 14.0635L15.305 14.443L15.4188 14.5403L15.5163 14.4266L18.0635 11.4568C18.5283 11.9316 19.1084 12.2791 19.7484 12.4646C20.4429 12.6659 21.18 12.6682 21.8757 12.4712C23.2608 12.09 24.4591 11.0172 25.1809 9.53794L25.1811 9.53743C25.7391 8.38269 26.013 7.03176 26.0512 5.29289L26.0512 5.29288L26.0775 4.09619L25.7964 4.02005L25.2126 5.0708L25.2122 5.0716C24.6729 6.05645 24.1292 7.04665 23.3299 7.78905L23.3295 7.78942C22.4482 8.61388 21.4182 8.95447 20.5811 8.7486L20.5811 8.74858C20.254 8.6683 19.9434 8.59062 19.6988 8.41046C19.4877 8.25498 19.3151 8.01378 19.2518 7.58946C20.7246 7.34392 21.7481 5.95506 21.749 4.21193C21.762 3.77582 21.6875 3.34152 21.5299 2.93469C21.3719 2.52714 21.1337 2.15546 20.8294 1.8417C20.5251 1.52794 20.1609 1.27848 19.7584 1.10813C19.3559 0.937779 18.9232 0.85 18.4861 0.85C18.049 0.85 17.6164 0.937779 17.2139 1.10813C16.8114 1.27848 16.4471 1.52794 16.1428 1.8417C15.8385 2.15546 15.6004 2.52714 15.4424 2.93469C15.2845 3.34224 15.21 3.77736 15.2233 4.21424L15.2278 4.35965H15.3733H15.957H16.1069L16.107 4.20982C16.1078 3.57863 16.3588 2.9735 16.8051 2.52719C17.2514 2.08091 17.8565 1.82985 18.4876 1.82908C19.1187 1.82985 19.7238 2.08091 20.17 2.52719C20.6164 2.9735 20.8674 3.57863 20.8682 4.20982C20.8681 4.83294 20.6797 5.47172 20.3238 5.95102C19.9705 6.42695 19.4538 6.74491 18.7824 6.74491H18.4905Z" fill="white" stroke="white" stroke-width="0.3"/>
</g>
</svg>
