<svg width="23" height="22" viewBox="0 0 23 22" fill="none" xmlns="http://www.w3.org/2000/svg">
<circle cx="11.5865" cy="11.3816" r="3.5274" stroke="#2D2C2C" stroke-width="2.8"/>
<path d="M1.70972 7.32668C1.70972 5.66983 3.05286 4.32668 4.70972 4.32668H5.46508C5.76709 4.32668 6.05293 4.19019 6.24278 3.95532L7.62328 2.24748C8.00299 1.77774 8.5743 1.50476 9.17831 1.50476C9.95776 1.50476 11.0198 1.50476 11.5864 1.50476C12.1531 1.50476 13.2151 1.50476 13.9946 1.50476C14.5986 1.50476 15.1699 1.77774 15.5496 2.24748L16.9301 3.95532C17.12 4.19019 17.4058 4.32668 17.7078 4.32668H18.4632C20.12 4.32668 21.4632 5.66983 21.4632 7.32668V16.8472C21.4632 18.5041 20.12 19.8472 18.4632 19.8472H4.70971C3.05286 19.8472 1.70972 18.5041 1.70972 16.8472V7.32668Z" stroke="#2D2C2C" stroke-width="2.8" stroke-linejoin="round"/>
</svg>
