<svg width="24" height="24" viewBox="0 0 24 24" fill="none" xmlns="http://www.w3.org/2000/svg">
<path fill-rule="evenodd" clip-rule="evenodd" d="M12.088 1.73013C6.80652 1.73013 2.52505 6.0116 2.52505 11.2931C2.52505 13.8843 3.8799 16.609 5.97772 18.7068C7.84313 20.5722 10.2042 21.8502 12.5264 22.1104V21.7816C12.4788 21.4978 12.4257 21.1693 12.4098 20.8987C12.4014 20.7556 12.397 20.5469 12.4458 20.3437C12.486 20.1761 12.6679 19.6368 13.2844 19.5599C15.7175 19.2565 17.8145 18.3631 19.2909 16.9784C20.7523 15.6077 21.6509 13.7162 21.6509 11.2931C21.6509 6.0116 17.3694 1.73013 12.088 1.73013ZM14.2565 21.1635C16.6673 20.7427 18.844 19.7696 20.4745 18.2403C22.2894 16.5381 23.381 14.1877 23.381 11.2931C23.381 5.05607 18.325 0 12.088 0C5.851 0 0.794922 5.05607 0.794922 11.2931C0.794922 14.4611 2.42621 17.6021 4.75433 19.9302C7.08246 22.2583 10.2235 23.8896 13.3915 23.8896C13.6557 23.8896 13.9029 23.7828 14.0831 23.5955C14.2387 23.4337 14.3044 23.2542 14.3345 23.1453C14.3929 22.9342 14.3888 22.7175 14.3815 22.5793C14.3663 22.2913 14.3065 21.9338 14.2565 21.637V21.1635Z" fill="white"/>
<path fill-rule="evenodd" clip-rule="evenodd" d="M8.74951 8.7679C8.74951 8.29013 9.13681 7.90283 9.61458 7.90283H14.8286C15.3063 7.90283 15.6936 8.29013 15.6936 8.7679C15.6936 9.24566 15.3063 9.63296 14.8286 9.63296H9.61458C9.13681 9.63296 8.74951 9.24566 8.74951 8.7679Z" fill="white"/>
<path fill-rule="evenodd" clip-rule="evenodd" d="M6.67627 13.3309C6.67627 12.8531 7.06357 12.4658 7.54133 12.4658L16.6658 12.4658C17.1436 12.4658 17.5309 12.8531 17.5309 13.3309C17.5309 13.8086 17.1436 14.1959 16.6658 14.1959L7.54133 14.1959C7.06357 14.1959 6.67627 13.8086 6.67627 13.3309Z" fill="white"/>
</svg>
