<svg width="24" height="24" viewBox="0 0 24 24" fill="none" xmlns="http://www.w3.org/2000/svg">
<g clip-path="url(#clip0_92_1696)">
<path d="M22.554 13.6619L20.654 6.82593C20.0971 4.82327 18.8867 3.06422 17.2153 1.8284C15.5439 0.592587 13.5074 -0.049079 11.4295 0.00540109C9.35153 0.0598812 7.35142 0.807381 5.74707 2.12908C4.14272 3.45078 3.02621 5.27084 2.57501 7.29993L1.10401 13.9149C0.941521 14.6459 0.945277 15.404 1.115 16.1333C1.28472 16.8625 1.61607 17.5444 2.08459 18.1285C2.55311 18.7126 3.14683 19.184 3.82192 19.5079C4.49701 19.8318 5.23623 20 5.98501 19.9999H7.09901C7.32852 21.1302 7.94174 22.1464 8.83475 22.8763C9.72776 23.6062 10.8457 24.0049 11.999 24.0049C13.1524 24.0049 14.2703 23.6062 15.1633 22.8763C16.0563 22.1464 16.6695 21.1302 16.899 19.9999H17.737C18.5078 20 19.2682 19.8218 19.9588 19.4794C20.6493 19.1369 21.2514 18.6394 21.7178 18.0258C22.1843 17.4122 22.5026 16.699 22.6478 15.942C22.793 15.185 22.7603 14.4046 22.554 13.6619ZM11.999 21.9999C11.3807 21.9974 10.7784 21.8039 10.2743 21.4458C9.77024 21.0878 9.38909 20.5828 9.18301 19.9999H14.815C14.6089 20.5828 14.2278 21.0878 13.7237 21.4458C13.2196 21.8039 12.6173 21.9974 11.999 21.9999ZM20.125 16.8149C19.8464 17.1846 19.4853 17.4842 19.0706 17.6899C18.6559 17.8956 18.1989 18.0018 17.736 17.9999H5.98501C5.53579 17.9999 5.09233 17.8989 4.68735 17.7045C4.28237 17.5101 3.92621 17.2273 3.64517 16.8768C3.36412 16.5264 3.16537 16.1173 3.06357 15.6798C2.96177 15.2423 2.95953 14.7874 3.05701 14.3489L4.52701 7.73293C4.88136 6.13914 5.75831 4.70954 7.01846 3.67138C8.27861 2.63323 9.84963 2.04611 11.4818 2.00335C13.1139 1.96059 14.7135 2.46465 16.0263 3.4354C17.3391 4.40616 18.2897 5.78788 18.727 7.36093L20.627 14.1969C20.7526 14.6423 20.7725 15.1108 20.6854 15.5653C20.5983 16.0197 20.4064 16.4476 20.125 16.8149Z" fill="white"/>
</g>
<defs>
<clipPath id="clip0_92_1696">
<rect width="24" height="24" fill="white"/>
</clipPath>
</defs>
</svg>
