<svg width="23" height="22" viewBox="0 0 23 22" fill="none" xmlns="http://www.w3.org/2000/svg">
<g opacity="0.6">
<path d="M19.5768 3.4689H15.6185V0.61063C15.6185 0.272835 15.3457 0 15.0079 0H2.84724C1.55236 0 0.5 1.05236 0.5 2.34724V19.0768C0.5 20.6878 1.8122 22 3.42323 22H19.5768C21.1878 22 22.5 20.6878 22.5 19.0768V6.39213C22.5 4.7811 21.1878 3.4689 19.5768 3.4689ZM2.84724 1.22126H14.3972V3.4689H2.84724C2.22795 3.4689 1.72126 2.96654 1.72126 2.34724C1.72126 1.72795 2.22795 1.22126 2.84724 1.22126ZM21.2787 19.0768C21.2787 20.0165 20.5165 20.7787 19.5768 20.7787H3.42323C2.48346 20.7787 1.72126 20.0165 1.72126 19.0768V4.40433C2.05472 4.58622 2.44016 4.69016 2.84724 4.69016H19.5768C20.5165 4.69016 21.2787 5.45236 21.2787 6.39213V19.0768Z" fill="white"/>
<path d="M19.5812 5.78156H14.9647C14.6528 5.78156 14.354 6.05006 14.354 6.39219V10.3634C14.354 10.7012 14.6269 10.9741 14.9647 10.9741H19.5812C19.919 10.9741 20.1918 10.7012 20.1918 10.3634V6.39652C20.1918 6.05439 19.919 5.78156 19.5812 5.78156ZM18.9662 9.75281H15.571V7.00715H18.9662V9.75281Z" fill="white"/>
<path d="M3.42868 13.2898H11.5055C11.8433 13.2898 12.1161 13.017 12.1161 12.6792C12.1161 12.3414 11.8433 12.0685 11.5055 12.0685H3.42868C3.09089 12.0685 2.81805 12.3414 2.81805 12.6792C2.81805 13.017 3.09089 13.2898 3.42868 13.2898Z" fill="white"/>
<path d="M19.5822 14.3895H3.42868C3.09089 14.3895 2.81805 14.6623 2.81805 15.0001C2.81805 15.3379 3.09089 15.6107 3.42868 15.6107H19.5822C19.92 15.6107 20.1929 15.3379 20.1929 15.0001C20.1929 14.6623 19.92 14.3895 19.5822 14.3895Z" fill="white"/>
<path d="M19.5822 17.2864H3.42868C3.09089 17.2864 2.81805 17.5593 2.81805 17.8971C2.81805 18.2349 3.09089 18.5077 3.42868 18.5077H19.5822C19.92 18.5077 20.1929 18.2349 20.1929 17.8971C20.1929 17.5593 19.92 17.2864 19.5822 17.2864Z" fill="white"/>
<path d="M3.4459 8.0438L4.58055 9.53356H5.11323V7.15601H4.58055V8.68475L3.41126 7.15601H2.91756V9.53356H3.4459V8.0438Z" fill="white"/>
<path d="M7.4509 9.06585H6.22964V8.57215H7.29499V8.11742H6.22964V7.62805H7.41192V7.15601H5.69696V9.53356H7.4509V9.06585Z" fill="white"/>
<path d="M8.84484 9.53356L9.36452 7.87923L9.88421 9.53356H10.2783L11.1098 7.15601H10.5338L10.0618 8.52451L9.64169 7.15601H9.08736L8.66295 8.52451L8.19523 7.15601H7.61925L8.45074 9.53356H8.84484Z" fill="white"/>
<path d="M12.2301 9.09186C12.0136 9.09186 11.7754 8.97926 11.5199 8.75406L11.2037 9.14383C11.5069 9.42099 11.8447 9.56391 12.2215 9.56391C12.7368 9.56391 13.0919 9.26509 13.0919 8.84501C13.1093 8.43359 12.8278 8.21705 12.3774 8.10879C12.0526 8.02217 11.862 7.96587 11.8533 7.79698C11.8707 7.66272 11.9443 7.56745 12.1392 7.56745C12.36 7.56745 12.5722 7.6454 12.7801 7.80131L13.0486 7.41154C12.8061 7.22532 12.5203 7.10406 12.1565 7.09973C11.6282 7.13005 11.3207 7.34658 11.3033 7.80564C11.3033 8.23871 11.5589 8.43792 12.1045 8.55918C12.3384 8.61548 12.5593 8.68044 12.5419 8.858C12.5506 9.00957 12.3774 9.10052 12.2301 9.09186Z" fill="white"/>
</g>
</svg>
