<svg width="108" height="104" viewBox="0 0 108 104" fill="none" xmlns="http://www.w3.org/2000/svg">
<g clip-path="url(#clip0_1_84)">
<path d="M92.3913 20.0987C92.3913 16.8137 90.2445 13.9134 87.1121 12.9768L53.1734 0.31219C50.7656 -0.41176 48.1553 0.144776 46.247 1.78724L8.81585 31.0303C7.17315 32.442 6.22803 34.5053 6.22803 36.6771V62.6986L42.4801 53.6176L37.3404 36.5459L37.9435 36.3604L43.0921 53.4637L45.86 52.7714L40.5943 35.279L41.1974 35.0935L46.4721 52.6131L49.582 51.8348L44.3298 34.3786L44.9329 34.1931L50.194 51.681L53.817 50.7715L48.0833 32.9533L48.6863 32.7587L54.4336 50.6177L57.5164 49.844L52.1788 30.9172L52.7864 30.7453L58.1285 49.6901L60.9684 48.9798L56.1933 30.7543L56.8054 30.5914L61.5849 48.8259L63.6282 48.3146L60.0413 29.0394L60.6623 28.9218L64.2448 48.1608L66.8146 47.5183L64.0603 27.759L64.6858 27.6685L67.4312 47.3599L69.7715 46.7717L68.3538 26.854L68.9839 26.8088L70.3926 46.6179L73.1424 45.9301L71.9227 26.2975L72.5528 26.2568L73.7635 45.7718L92.3823 41.1068V20.0987H92.3913Z" fill="#FFD232"/>
<path d="M48.0923 32.9578L53.826 50.7806L54.4426 50.6267L48.6954 32.7632L48.0923 32.9578Z" fill="black"/>
<path d="M44.3342 34.3831L49.5909 51.8394L50.203 51.6856L44.9418 34.2021L44.3342 34.3831Z" fill="black"/>
<path d="M52.1875 30.9262L57.5252 49.853L58.1372 49.6991L52.7951 30.7543L52.1875 30.9262Z" fill="black"/>
<path d="M56.2021 30.7588L60.9817 48.9888L61.5938 48.835L56.8142 30.6005L56.2021 30.7588Z" fill="black"/>
<path d="M60.0457 29.044L63.6371 48.3237L64.2492 48.1698L60.6667 28.9308L60.0457 29.044Z" fill="black"/>
<path d="M64.0693 27.7635L66.8192 47.5228L67.4358 47.3689L64.6949 27.6775L64.0693 27.7635Z" fill="black"/>
<path d="M68.363 26.8631L69.7807 46.7808L70.4018 46.627L68.9931 26.8179L68.363 26.8631Z" fill="black"/>
<path d="M71.9316 26.3065L73.1468 45.9392L73.7724 45.7808L72.5617 26.2658L71.9316 26.3065Z" fill="black"/>
<path d="M40.5991 35.2835L45.8648 52.7715L46.4769 52.6176L41.2067 35.098L40.5991 35.2835Z" fill="black"/>
<path d="M37.345 36.5504L42.4846 53.6221L43.0967 53.4683L37.948 36.3649L37.345 36.5504Z" fill="black"/>
<path d="M36.4858 39.4507C36.4858 39.4507 76.1493 29.5598 80.6814 29.5598L36.4858 39.4507Z" fill="#231F20"/>
<path d="M36.4093 39.1385C50.6536 35.8219 64.8528 32.1615 79.2726 29.6819C79.7407 29.6186 80.2133 29.596 80.6813 29.5552C80.2133 29.605 79.7407 29.6322 79.2726 29.7046C72.2968 30.8991 65.4244 32.6547 58.5386 34.279C51.1981 36.0527 43.8757 37.8897 36.5578 39.7584L36.4048 39.1431L36.4093 39.1385Z" fill="#231F20"/>
<path d="M36.0674 43.3148C36.0674 43.3148 76.1449 33.3289 80.677 33.3289L36.0674 43.3148Z" fill="#231F20"/>
<path d="M35.9906 43.0072C50.3699 39.6634 64.6997 35.9713 79.2545 33.4601C79.7271 33.3967 80.2041 33.3741 80.6767 33.3289C80.2041 33.3786 79.7271 33.4103 79.2545 33.4782C72.2156 34.6908 65.2757 36.4554 58.3269 38.0979C50.919 39.8897 43.5245 41.7403 36.1391 43.6225L35.9861 43.0072H35.9906Z" fill="#231F20"/>
<path d="M35.0273 47.2423C35.0273 47.2423 76.149 37.021 80.681 37.021L35.0273 47.2423Z" fill="#231F20"/>
<path d="M34.9509 46.9346C49.6678 43.514 64.3351 39.7494 79.223 37.1613C79.7045 37.0934 80.1951 37.0708 80.6811 37.0256C80.1951 37.0799 79.709 37.107 79.2275 37.1839C72.0266 38.4328 64.9247 40.2381 57.8138 41.9122C50.2303 43.7402 42.6649 45.6315 35.1039 47.5545L34.9509 46.9392V46.9346Z" fill="#231F20"/>
<path d="M35.5493 51.2827C35.5493 51.2827 76.1489 40.8262 80.681 40.8262L35.5493 51.2827Z" fill="#231F20"/>
<path d="M35.4684 50.9751C50.0142 47.473 64.506 43.6089 79.2363 40.9619C79.7134 40.894 80.1995 40.8714 80.6765 40.8217C80.195 40.876 79.7134 40.9031 79.2363 40.98C72.1119 42.2515 65.0956 44.0975 58.0612 45.8124C50.5678 47.6856 43.0878 49.6177 35.6214 51.5859L35.4639 50.9705L35.4684 50.9751Z" fill="#231F20"/>
<path d="M36.0674 37.0255L81.8471 24.0035L36.0674 33.3334V37.0255Z" fill="#231F20"/>
<path d="M9.65796 89.4305C10.225 89.7924 10.8416 90.0865 11.5077 90.2856L45.4464 103.692C47.8542 104.416 50.4646 103.86 52.3728 102.217L89.804 73.2185C90.9741 72.214 91.7797 70.8747 92.1533 69.4042C75.2356 69.0332 40.5318 70.9381 9.65796 89.4305Z" fill="#FFD232"/>
<path d="M55.7078 11.5109L86.7482 19.0942L53.9706 6.86401C51.5628 6.14006 48.9525 6.6966 47.0442 8.33906L16.877 31.9082L45.6671 13.3886C48.4349 11.4294 52.2199 10.7236 55.7123 11.5154L55.7078 11.5109Z" fill="#231F20"/>
<path d="M3.86106 87.2631C3.05096 86.5256 2.45238 85.1049 2.06084 82.9963L1.67829 80.9376L4.76117 79.9015L5.24723 82.5258C5.44076 83.571 5.7873 84.0099 6.28686 83.8425C6.5659 83.7474 6.74142 83.571 6.80893 83.3131C6.87644 83.0552 6.86294 82.666 6.76392 82.1412C6.63791 81.4534 6.47139 80.9059 6.26436 80.4987C6.05734 80.0915 5.83681 79.7657 5.58928 79.5259C5.34625 79.2861 4.91869 78.9286 4.31562 78.4581L2.62791 77.0962C1.32724 76.0736 0.521643 74.7297 0.211105 73.0647C-0.121937 71.2684 -0.0724309 69.7933 0.368624 68.6486C0.809679 67.5038 1.61528 66.7301 2.79443 66.3364C4.2031 65.8613 5.31474 66.0242 6.12034 66.8206C6.92594 67.6169 7.52902 69.0875 7.92507 71.2276L4.73417 72.3L4.44613 70.8611C4.39663 70.5851 4.29762 70.3815 4.1491 70.2593C4.00508 70.1372 3.82506 70.1055 3.61803 70.1779C3.375 70.2593 3.20848 70.4132 3.12297 70.6304C3.03296 70.8521 3.01946 71.1145 3.07796 71.4267C3.20398 72.1145 3.63153 72.7253 4.35162 73.2637L6.6109 75.0057C7.13747 75.4175 7.58753 75.8247 7.96107 76.2319C8.33462 76.6346 8.66766 77.1505 8.9647 77.7703C9.26174 78.3902 9.49576 79.1685 9.66679 80.1005C10.0538 82.1774 10.0628 83.8425 9.69379 85.1049C9.32924 86.3672 8.49214 87.2134 7.19148 87.6523C5.7693 88.1319 4.65316 88.0007 3.84756 87.2677L3.86106 87.2631Z" fill="white"/>
<path d="M7.94336 65.4134L12.0839 64.1329C13.335 63.7437 14.3297 63.97 15.0677 64.807C15.8058 65.6441 16.3684 67.0241 16.7555 68.9471C17.1425 70.8747 17.201 72.3995 16.922 73.5216C16.6474 74.6483 15.8914 75.3993 14.6672 75.7794L13.389 76.1731L14.8967 83.6343L12.0839 85.0731L7.94336 65.4088V65.4134ZM12.867 72.6212C13.245 72.5035 13.5016 72.3316 13.6456 72.1054C13.7896 71.8791 13.8526 71.5941 13.8436 71.2547C13.8346 70.9154 13.7671 70.4448 13.6456 69.843C13.4836 69.0286 13.29 68.4675 13.0695 68.1508C12.849 67.8341 12.5204 67.7436 12.0839 67.8793L11.7373 67.9879L12.687 72.6845L12.867 72.6302V72.6212Z" fill="white"/>
<path d="M21.0714 78.7114C20.2253 78.0553 19.6267 76.9694 19.2757 75.4536L17.417 67.3816C17.0794 65.9201 17.1559 64.7301 17.6375 63.8116C18.1235 62.8931 18.9921 62.2596 20.2568 61.9157C21.517 61.5719 22.5611 61.685 23.3892 62.2506C24.2173 62.8162 24.7979 63.8297 25.1354 65.2912L26.9941 73.3632C27.3452 74.888 27.2912 76.1549 26.8231 77.1594C26.3596 78.1639 25.4955 78.8381 24.2353 79.182C22.9751 79.5258 21.9175 79.3675 21.0714 78.7069V78.7114ZM23.9923 75.5215C24.0283 75.2319 23.9923 74.8518 23.8843 74.3767L21.976 66.0875C21.8905 65.721 21.778 65.4314 21.634 65.2278C21.49 65.0242 21.2784 64.9563 20.9994 65.0333C20.4773 65.1735 20.3153 65.6712 20.5133 66.5264L22.4171 74.793C22.5296 75.2817 22.6691 75.6346 22.8356 75.8518C23.0022 76.0735 23.2317 76.1414 23.5242 76.0645C23.8033 75.9875 23.9608 75.8065 23.9968 75.517L23.9923 75.5215Z" fill="white"/>
<path d="M31.688 68.6486C31.886 68.73 32.0435 68.9924 32.1515 69.4449L33.6817 75.7297L36.6881 74.7026L35.3019 68.8567C35.1354 68.1961 34.9014 67.6984 34.5998 67.3681C34.2893 67.0333 33.8887 66.8794 33.3892 66.8975C33.9157 66.5536 34.2308 66.0966 34.3343 65.522C34.4423 64.9564 34.3838 64.2144 34.1588 63.3004C33.9202 62.3004 33.6412 61.4996 33.3442 60.8932C33.0426 60.2915 32.6376 59.8616 32.1335 59.6173C31.6249 59.373 30.9904 59.3458 30.2253 59.5404L25.4097 60.7711L29.4287 77.2726L32.3675 76.1867L30.7113 68.6938C31.1614 68.5807 31.4854 68.5626 31.688 68.644V68.6486ZM30.8013 65.712L30.0497 65.9066L29.3252 62.9294L30.0542 62.7438C30.2343 62.6941 30.3828 62.6986 30.4998 62.7619C30.6168 62.8162 30.7248 62.9475 30.8103 63.1511C30.9004 63.3547 30.9949 63.6624 31.0984 64.0877C31.3369 65.0605 31.2379 65.6034 30.8013 65.712Z" fill="white"/>
<path d="M39.3435 73.8565L36.2112 61.2552L34.3524 61.7213L33.6008 58.6942L40.4552 56.9703L41.2068 59.9974L39.348 60.4634L42.4444 72.9244L39.3435 73.852V73.8565Z" fill="white"/>
<path d="M45.595 55.6446L50.4106 54.4682C51.1757 54.2827 51.8102 54.3053 52.3188 54.5406C52.8229 54.7759 53.2279 55.1831 53.5295 55.7623C53.831 56.3414 54.1055 57.1061 54.3486 58.0563C54.5691 58.925 54.6276 59.6309 54.5196 60.1784C54.4116 60.7259 54.0965 61.1602 53.5745 61.4905C54.074 61.4679 54.4746 61.6172 54.7806 61.934C55.0867 62.2507 55.3207 62.7258 55.4827 63.3547L56.9274 69.463L53.8895 70.0694L52.3323 63.9203C52.2243 63.4905 52.0668 63.2371 51.8688 63.1601C51.6662 63.0832 51.3422 63.1013 50.8921 63.2099L52.7419 70.3182L49.524 71.0557L45.595 55.6492V55.6446ZM50.9821 60.3594C51.4187 60.2508 51.5222 59.735 51.2837 58.8074C51.1802 58.4047 51.0857 58.1061 50.9956 57.9115C50.9056 57.7169 50.8066 57.5948 50.6896 57.5405C50.5726 57.4862 50.4241 57.4817 50.2396 57.5269L49.5105 57.7034L50.2351 60.5449L50.9821 60.3639V60.3594Z" fill="white"/>
<path d="M57.7872 69.35L55.3884 53.224L60.6946 51.8892L66.3563 67.9835L63.2644 68.4043L62.2788 65.5176L60.3841 65.9927L60.8656 68.7754L57.7872 69.35ZM59.997 63.4181L61.4192 63.0607L58.7368 55.2239L58.5928 55.2601L60.0015 63.4181H59.997Z" fill="white"/>
<path d="M67.4272 67.8523L63.1382 51.2738L66.3651 50.4639L69.6775 57.6356L67.8053 50.1019L70.8297 49.3418L75.2537 67.1464L72.3823 67.3546L68.1518 58.3686L70.6001 67.513L67.4227 67.8523H67.4272Z" fill="white"/>
<path d="M76.1581 67.0921L72.2156 49.2377L75.3165 48.3599L76.8827 55.4592L76.7746 47.9482L79.9295 47.0568L79.97 55.6628L85.2357 66.8659L81.5362 66.8885L77.3552 57.4998L79.439 66.9428L76.1581 67.0921Z" fill="white"/>
<path d="M85.6454 66.8613L80.6768 46.8667L83.7056 46.1066L88.8813 66.9382L85.6454 66.8613Z" fill="white"/>
<path d="M90.2313 66.9925L84.9612 45.7943L88.1881 44.9844L91.5005 52.1561L89.6283 44.6225L92.6571 43.8623L98.5214 67.454L96.0191 67.2323L89.9838 52.8936L93.5123 67.0921L90.2358 67.0016L90.2313 66.9925Z" fill="white"/>
<path d="M100.834 67.0017C100.083 66.3411 99.5068 65.1963 99.1018 63.572L94.9792 47.817C94.6192 46.3646 94.6642 45.1836 95.1233 44.2742C95.5823 43.3647 96.4509 42.7539 97.7246 42.4326C98.7597 42.1747 99.6103 42.1792 100.285 42.4507C100.96 42.7222 101.505 43.2289 101.924 43.9665C102.342 44.704 102.702 45.6994 103.013 46.9437L99.9479 47.7129L99.5968 46.3012C99.5023 45.9211 99.3763 45.6406 99.2233 45.4596C99.0657 45.2786 98.8587 45.2198 98.5887 45.2877C97.9946 45.437 97.7921 45.903 97.9856 46.6858L102.32 63.2824C102.437 63.7575 102.59 64.1059 102.77 64.3185C102.95 64.5312 103.197 64.5991 103.499 64.5267C103.8 64.4497 103.985 64.2733 104.048 63.9973C104.111 63.7213 104.079 63.3457 103.962 62.8706L102.878 58.9251L102.041 59.1378L101.366 56.4229L105.196 55.4592L107.995 66.3184L106.735 66.6352L105.88 65.4497C105.565 66.5673 104.822 67.2732 103.656 67.5673C102.527 67.8523 101.586 67.6623 100.83 67.0017H100.834Z" fill="white"/>
<path d="M47.0888 89.9418L48.2724 92.3534L50.9232 92.738L49.006 94.6158L49.4561 97.2672L47.0888 96.0184L44.7215 97.2672L45.1715 94.6158L43.2588 92.738L45.9051 92.3534L47.0888 89.9418Z" fill="#231F20"/>
<path d="M57.2919 88.2314L58.6465 89.15L60.1677 88.5572L59.7132 90.1318L60.7438 91.4033L59.1146 91.4576L58.2325 92.8376L57.6744 91.2947L56.0947 90.8739L57.3864 89.8694L57.2919 88.2314Z" fill="#231F20"/>
<path d="M37.9349 89.9418L38.4119 91.5118L39.9691 92.005L38.6325 92.9462L38.646 94.5886L37.3408 93.6022L35.7881 94.1226L36.3237 92.5661L35.3516 91.2449L36.9853 91.2766L37.9349 89.9418Z" fill="#231F20"/>
<path d="M31.3683 89.0141L31.5708 90.0593L32.5384 90.4801L31.6158 90.9959L31.5123 92.0502L30.7382 91.3262L29.7076 91.557L30.1531 90.5932L29.6221 89.6792L30.6662 89.8104L31.3683 89.0141Z" fill="#231F20"/>
<path d="M64.6142 84.8017L65.5368 85.3266L66.4864 84.8605L66.2749 85.9012L67.0085 86.6613L65.9599 86.7835L65.4648 87.7201L65.0238 86.7564L63.9841 86.5709L64.7627 85.856L64.6142 84.8017Z" fill="#231F20"/>
<path d="M23.9295 26.0261C23.9295 26.0261 24.0825 26.112 24.492 26.2297C24.7396 26.3021 25.1446 26.7183 25.1446 26.7183L22.3678 28.7499C22.3678 28.7499 21.6972 28.2251 21.4316 28.1708L23.9295 26.0261Z" fill="#FFD232"/>
<path d="M19.4511 29.2249C19.4511 29.2249 20.4907 29.4195 20.6752 29.7543C20.8598 30.0891 19.9867 30.2882 19.9867 30.2882L19.2576 29.7226L19.4466 29.2204L19.4511 29.2249Z" fill="#FFD232"/>
<path d="M35.2703 55.346C35.2703 55.346 35.4458 55.4365 35.4998 55.5496C35.5538 55.6628 36.3639 55.9207 37.156 55.699C37.9481 55.4772 38.3486 55.4908 38.5782 55.5677C38.8077 55.6447 39.5143 55.8347 40.0229 55.699C40.4864 55.5768 41.1615 55.1515 41.0625 53.975C40.9635 52.7986 38.8572 52.6719 38.8572 52.6719L35.2703 55.346Z" fill="#FFD232"/>
<path d="M52.6738 18.5647C52.6738 18.5647 52.5703 19.352 52.7053 19.8588C52.8403 20.3656 53.2409 21.5827 52.5163 21.9311C52.3588 22.008 51.8142 22.1664 51.6342 22.1347C51.3372 22.0849 51.0221 22.0759 49.7214 23.2478C48.4208 24.4197 48.3758 24.9219 47.5027 25.6911C47.4127 25.768 47.1156 26.8313 46.004 27.7861C45.2884 28.4014 43.8167 29.1254 43.0516 29.5959C42.453 29.9624 42.03 30.519 41.9715 30.7316C41.8635 31.1298 40.9904 33.9351 40.8688 33.9713C40.8688 33.9713 40.9589 34.2337 40.8283 34.4283C40.8283 34.4283 39.1946 37.4553 38.9606 37.7585C38.7266 38.0616 38.5466 38.5277 38.4835 38.9575C38.4205 39.3874 38.4295 39.781 38.263 40.0887C38.0965 40.3964 37.975 40.962 37.957 41.1656C37.939 41.3692 37.3899 42.1022 37.2639 42.2289C37.1379 42.3556 37.0299 42.7583 37.0164 42.9211C37.0029 43.084 36.6203 44.2197 36.5213 44.3283C36.5213 44.3283 36.3818 45.5817 35.9452 46.1201C35.7967 46.3011 35.8057 46.4052 35.7877 46.568C35.7697 46.7309 35.6707 47.3191 35.8507 47.3825C36.0307 47.4458 37.4394 49.2829 37.4574 49.6086C37.4754 49.9344 37.7184 50.9932 37.8355 51.233C37.9525 51.4728 38.6726 52.3732 38.9156 52.4637C39.1586 52.5542 39.4872 52.9795 39.8652 53.1062C40.2433 53.2329 41.0579 53.8618 40.7293 54.6853C40.4008 55.5088 39.6447 55.4817 39.3972 55.4364C39.1496 55.3912 38.236 55.1061 37.6914 55.2826C37.1469 55.4591 35.9542 55.4862 35.7427 55.26C35.5312 55.0337 35.4277 54.9523 35.2926 54.9432C35.1576 54.9342 34.9776 54.8889 34.8921 54.5813C34.8516 54.441 34.478 54.3369 34.541 53.9026C34.541 53.9026 34.1405 53.527 34.424 53.1786C34.5771 52.9931 34.8021 53.0519 34.8021 53.0519C34.8021 53.0519 34.3115 52.6356 34.8381 52.156C34.8381 52.156 33.2539 50.9253 32.9118 49.4186C32.9118 49.4186 32.6373 48.9299 32.6643 48.6132C32.6643 48.6132 32.5068 48.3236 32.3718 48.0793C32.2368 47.835 31.9937 47.7218 31.9082 47.6223C31.8227 47.5228 31.1566 47.0929 31.0846 46.6223C31.0846 46.6223 30.36 46.0025 30.1665 45.6586C30.1665 45.6586 29.8425 45.1925 29.6714 44.8306C29.6714 44.8306 28.4113 44.8306 28.0512 44.7265C27.6912 44.6224 27.4212 44.6224 27.1421 44.6179C26.8631 44.6134 24.6713 44.2966 24.3698 44.1066C24.0682 43.9166 23.7037 43.8849 23.4292 43.8804C23.1546 43.8759 22.9071 43.808 22.6731 43.6044C22.439 43.4008 22.1465 43.3238 21.872 43.3238C21.5974 43.3238 21.1879 43.3057 21.0979 43.2514C21.0979 43.2514 20.8458 43.2288 20.9403 43.446C21.0349 43.6632 21.0574 44.6541 20.9088 45.5183C20.7603 46.3825 20.7558 48.6404 20.1032 49.2919C19.8692 49.5272 19.7207 50.2014 19.6217 50.2828C19.5227 50.3643 19.1356 51.0656 18.4515 51.7624C17.7675 52.4592 16.2418 54.1152 15.9852 54.1378C15.9852 54.1378 15.7782 54.165 15.6837 54.4093C15.5892 54.6537 15.2606 55.0383 15.0401 55.1559C14.8196 55.2735 13.9465 55.8391 13.6584 55.9477C13.6584 55.9477 13.8655 56.1966 13.1724 56.4997C13.1724 56.4997 12.7583 56.5314 12.6638 56.2916C12.6638 56.2916 11.8762 56.3233 11.7817 55.9342C11.7457 55.7939 11.9437 55.6717 11.9437 55.6717C11.9437 55.6717 11.6197 55.4364 11.6647 55.2057C11.7097 54.9749 11.9347 55.0021 11.9347 55.0021C11.9347 55.0021 11.6962 54.6129 11.8852 54.3053C12.0742 53.9976 12.1958 53.6899 12.8078 53.4908C13.4199 53.2963 13.9285 53.251 14.2075 53.2284C14.4865 53.2058 14.8466 53.0338 15.0896 52.6175C15.3326 52.2013 15.7152 51.5452 16.0167 51.2511C16.3183 50.957 16.2733 50.9525 16.3273 50.6131C16.3813 50.2738 17.1194 48.5951 17.4749 48.0929C17.6819 47.7988 17.6819 47.5725 17.7044 47.3553C17.7179 47.2196 17.943 45.5228 18.0285 44.9663C18.114 44.4098 18.015 44.1338 17.9025 43.8578C17.79 43.5817 17.1149 41.3013 17.6279 40.3511C18.096 39.4824 18.8386 39.315 19.0861 39.1973C19.5407 38.9801 19.9232 38.7856 20.3013 38.0661C20.6208 37.4553 19.7747 36.7042 19.6622 36.6454C19.5497 36.5866 17.0654 35.2065 16.6558 34.0618C16.2463 32.917 16.2013 31.9216 16.6558 31.0303C17.1104 30.1389 18.123 29.3923 19.4507 29.5507C20.7783 29.709 20.8188 30.614 20.7018 30.9126C20.7018 30.9126 20.7738 31.1479 21.0214 31.2882C21.1834 31.3787 21.3949 31.7135 21.4714 31.8718C21.5479 32.0302 21.6244 32.1841 21.845 32.4239C22.0655 32.6637 22.8711 34.1116 22.8306 34.5459C22.7901 34.9803 22.9566 35.0663 23.0646 34.9848C23.1726 34.9034 23.5327 34.7767 23.5822 34.7088C23.6317 34.641 23.6407 34.5505 23.6227 34.2835C23.6047 34.0165 23.9782 32.9216 25.1259 32.5144C26.278 32.1026 26.7956 32.3243 26.8676 32.2745C26.9396 32.2248 27.5877 31.7995 28.0962 31.7452C28.0962 31.7452 27.9387 31.2248 24.7973 29.8357C24.2843 29.6095 24.3068 29.5507 24.1177 29.5054C23.6902 29.4059 23.1546 29.0168 23.0151 28.8856C22.7856 28.6684 21.4714 27.7272 21.1339 27.7634C21.1339 27.7634 21.0349 27.3291 21.7459 27.4874C21.7459 27.4874 21.944 27.5055 21.9935 27.2657C22.043 27.0259 21.854 26.9535 21.854 26.9535C21.854 26.9535 21.1294 27.0033 21.1069 26.8721C21.0844 26.7408 21.2734 26.6685 21.4624 26.6277C21.6514 26.587 21.8945 26.6051 22.0205 26.5508C22.3805 26.4015 22.4525 26.1979 22.6461 26.1119C22.9431 25.9762 23.0331 26.1164 23.0331 26.1164C23.0331 26.1164 22.9926 25.9581 23.2626 26.0169C23.5327 26.0757 23.5777 26.3472 23.8477 26.3924C24.1177 26.4377 24.5543 26.6775 24.8918 27.0078C25.2294 27.3381 25.3554 28.0892 25.4184 28.2657C25.4814 28.4421 25.5669 28.6503 25.7965 28.6593C26.026 28.6684 26.1835 28.6729 26.296 28.8313C26.4085 28.9896 26.7461 29.1616 26.9171 29.1887C27.0881 29.2159 28.5283 29.7317 29.1449 29.89C29.7615 30.0484 31.1566 30.9669 31.4312 31.1886C31.7057 31.4103 32.0657 31.7542 32.0477 32.0981C32.0297 32.442 31.9442 32.4917 31.9397 32.537C31.9352 32.5822 31.8452 33.3016 31.3817 33.5007C30.9181 33.6998 30.4005 33.822 30.297 33.9623C30.1935 34.1025 29.6264 34.5097 28.8883 34.5686C28.1503 34.6274 27.9837 34.8084 27.9792 34.8536C27.9747 34.8989 27.9612 35.0708 28.0737 35.2065C28.1863 35.3423 28.2583 35.5459 28.6273 35.6862C28.9964 35.8264 29.6354 36.2563 29.901 36.4146C30.036 36.4961 30.513 36.4961 30.6256 36.5051C30.7381 36.5142 32.0072 36.5775 32.4168 36.8354C32.4168 36.8354 33.0694 36.3784 33.3259 35.9169C33.4609 35.6726 33.6454 35.5911 33.7219 35.4599C33.857 35.2292 33.839 34.8038 34.0055 34.4962C34.1045 34.3152 36.2468 30.9579 36.3728 30.8447C36.4988 30.7316 36.5213 30.6049 36.6833 30.7C36.6833 30.7 37.2144 29.9489 37.8265 29.5054C38.5015 29.0168 38.9426 28.2023 39.3116 28.1797C39.3116 28.1797 39.3296 27.6051 39.8607 27.1933C40.3918 26.7816 41.5664 26.3472 42.156 26.0259C43.0381 25.5418 43.9067 24.6685 44.9508 24.0034C45.995 23.3383 47.6962 22.2433 48.5963 21.2072C49.4694 20.1981 49.888 19.7547 50.248 19.0217C50.4325 18.6462 50.3965 18.2163 50.7431 17.8091C50.8556 17.6779 50.9726 17.2073 51.0716 16.9766C51.1706 16.7458 51.2561 16.5784 51.4632 16.3341C51.6477 16.1169 51.7287 15.9268 51.9627 15.6554C52.1022 15.497 52.0482 15.2029 51.9942 15.1984C51.9402 15.1938 51.9627 14.8047 52.3453 14.8635C52.7278 14.9224 52.8763 15.2119 52.9348 15.5739C52.9934 15.9359 52.7908 16.0219 52.7683 16.144C52.7458 16.2662 52.9123 16.5829 52.8403 16.9811C52.7683 17.3793 52.5928 18.4426 52.6603 18.5647H52.6738Z" fill="black"/>
<path d="M56.4096 21.1439C58.1371 21.1439 59.5375 19.736 59.5375 17.9992C59.5375 16.2625 58.1371 14.8546 56.4096 14.8546C54.6821 14.8546 53.2817 16.2625 53.2817 17.9992C53.2817 19.736 54.6821 21.1439 56.4096 21.1439Z" fill="white"/>
<path d="M54.6815 16.135C54.6815 16.135 54.4384 16.7187 54.6049 18.1395C54.6049 18.1395 55.4736 17.3341 56.3017 16.9268C56.3017 16.9268 55.4646 16.3748 54.6815 16.1305V16.135Z" fill="black"/>
<path d="M58.0072 16.1713C58.0072 16.1713 57.0396 16.4156 56.3015 16.9314C56.3015 16.9314 57.1296 17.4065 58.0252 18.144C58.0252 18.144 58.1692 17.2074 58.0072 16.1713Z" fill="black"/>
<path d="M58.0249 18.144C58.0249 18.144 57.9079 19.049 57.3499 20.0399C57.3499 20.0399 58.259 19.886 58.9791 19.2797C58.9791 19.2797 58.9791 18.9856 58.0249 18.144Z" fill="black"/>
<path d="M57.3503 20.0489C56.0722 20.2751 55.2891 20.0489 55.2891 20.0489C55.6491 20.8271 56.3287 21.076 56.3287 21.076C56.9003 20.8452 57.3503 20.0489 57.3503 20.0489Z" fill="black"/>
<path d="M56.2341 21.1393C56.2926 21.1393 56.3511 21.1439 56.4142 21.1439C56.4277 21.1439 56.4457 21.1439 56.4592 21.1439L56.3286 21.076L56.2341 21.1393Z" fill="black"/>
<path d="M53.6821 19.2028C54.2042 19.8091 55.2888 20.0489 55.2888 20.0489C54.7443 19.23 54.6047 18.144 54.6047 18.144C53.9432 18.6915 53.6821 19.2073 53.6821 19.2073V19.2028Z" fill="black"/>
<path d="M53.3989 18.8499C53.4529 19.04 53.5204 19.2209 53.606 19.3929C53.624 19.316 53.651 19.2526 53.6825 19.2074C53.6825 19.2074 53.5294 19.0354 53.3989 18.8544V18.8499Z" fill="black"/>
<path d="M54.681 16.1351C54.816 15.5966 55.1131 15.2437 55.3291 15.0446C54.7845 15.2437 54.3165 15.5921 53.9609 16.04C54.4065 16.031 54.681 16.1351 54.681 16.1351Z" fill="black"/>
<path d="M58.0073 16.1713C58.0073 16.1713 58.4663 16.0129 58.9164 16.1079C58.5383 15.6057 58.0163 15.2166 57.4087 15.0129C57.5437 15.1442 57.8993 15.5423 58.0118 16.1713H58.0073Z" fill="black"/>
<path d="M58.9792 19.2752C59.0378 19.325 59.0828 19.4517 59.1143 19.5874C59.2943 19.2797 59.4203 18.9449 59.4878 18.5829C59.2538 19.0264 58.9792 19.2752 58.9792 19.2752Z" fill="black"/>
</g>
<defs>
<clipPath id="clip0_1_84">
<rect width="108" height="104" fill="white"/>
</clipPath>
</defs>
</svg>
